<svg width="60" height="60" viewBox="0 0 60 60" fill="none" xmlns="http://www.w3.org/2000/svg">
<g clip-path="url(#clip0)">
<path d="M22.0287 41.7325H37.6154C38.1009 41.7325 38.4943 41.3389 38.4943 40.8536C38.4943 40.3682 38.1009 39.9746 37.6154 39.9746H22.0287C21.5433 39.9746 21.1498 40.3682 21.1498 40.8536C21.1498 41.3389 21.5433 41.7325 22.0287 41.7325ZM22.0287 50.5004C21.5433 50.5004 21.1498 50.8939 21.1498 51.3793C21.1498 51.8647 21.5433 52.2582 22.0287 52.2582H37.6154C38.1009 52.2582 38.4943 51.8647 38.4943 51.3793C38.4943 50.8939 38.1009 50.5004 37.6154 50.5004H22.0287ZM45.5256 47.8637C45.5256 47.3783 45.1322 46.9848 44.6467 46.9848H22.0287C21.5433 46.9848 21.1498 47.3783 21.1498 47.8637C21.1498 48.3491 21.5433 48.7426 22.0287 48.7426H44.6467C45.1322 48.7426 45.5256 48.3491 45.5256 47.8637ZM49.9201 38.4734C50.4056 38.4734 50.799 38.0798 50.799 37.5945V4.39453C50.799 1.97133 48.8277 0 46.4045 0H13.5955C11.1723 0 9.20099 1.97133 9.20099 4.39453V55.6055C9.20099 58.0287 11.1723 60 13.5955 60H46.4046C48.8278 60 50.7991 58.0287 50.7991 55.6055V41.696C50.7991 41.2106 50.4057 40.8171 49.9202 40.8171C49.4347 40.8171 49.0413 41.2106 49.0413 41.696V55.6055C49.0413 57.0594 47.8584 58.2422 46.4046 58.2422H13.5955C12.1416 58.2422 10.9588 57.0594 10.9588 55.6055V4.39453C10.9588 2.94059 12.1416 1.75781 13.5955 1.75781H46.4046C47.8584 1.75781 49.0413 2.94059 49.0413 4.39453V37.5945C49.0412 38.0798 49.4347 38.4734 49.9201 38.4734ZM44.6467 36.459H22.0287C21.5433 36.459 21.1498 36.8525 21.1498 37.3379C21.1498 37.8233 21.5433 38.2168 22.0287 38.2168H44.6467C45.1322 38.2168 45.5256 37.8233 45.5256 37.3379C45.5256 36.8525 45.1322 36.459 44.6467 36.459ZM22.0287 31.2525H37.6154C38.1009 31.2525 38.4943 30.859 38.4943 30.3736C38.4943 29.8882 38.1009 29.4947 37.6154 29.4947H22.0287C21.5433 29.4947 21.1498 29.8882 21.1498 30.3736C21.1498 30.859 21.5433 31.2525 22.0287 31.2525ZM44.6467 25.9791H22.0287C21.5433 25.9791 21.1498 26.3726 21.1498 26.858C21.1498 27.3434 21.5433 27.7369 22.0287 27.7369H44.6467C45.1322 27.7369 45.5256 27.3434 45.5256 26.858C45.5256 26.3726 45.1322 25.9791 44.6467 25.9791Z" fill="#F9223F"/>
<path d="M18.5541 42.4065C18.1213 42.4119 17.6674 42.4161 17.2514 42.4182C17.547 42.017 17.9208 41.4994 18.3868 40.8334C18.7956 40.2495 19.0848 39.7208 19.1602 39.1716C19.1725 39.0816 19.1961 38.92 19.1961 38.8341C19.1961 37.5245 18.1308 36.4591 16.8212 36.4591C15.6889 36.4591 14.7089 37.2648 14.4908 38.3747C14.3973 38.8509 14.7075 39.313 15.1839 39.4065C15.6602 39.5 16.1222 39.1898 16.2157 38.7135C16.2722 38.4257 16.5268 38.217 16.8212 38.217C17.1468 38.217 17.4143 38.4703 17.4368 38.7902C17.4591 39.1061 17.2979 39.3237 16.9467 39.8255C16.0233 41.1449 15.4724 41.8662 15.1765 42.2536C14.6598 42.9301 14.4129 43.8118 15.3078 44.1101C15.4233 44.1485 17.7434 44.1748 18.5761 44.1642C19.0615 44.1581 19.45 43.7597 19.4439 43.2743C19.4378 42.7889 19.0352 42.3971 18.5541 42.4065ZM16.9591 46.9848C15.8269 46.9848 14.8468 47.7905 14.6287 48.9004C14.5352 49.3766 14.8454 49.8387 15.3218 49.9322C15.7978 50.0256 16.26 49.7155 16.3536 49.2391C16.4101 48.9513 16.6648 48.7426 16.9591 48.7426C17.2995 48.7426 17.5762 49.0194 17.5762 49.3597C17.5762 49.7 17.2995 49.9768 16.9591 49.9768C16.4737 49.9768 16.0802 50.3704 16.0802 50.8557C16.0802 51.3411 16.4737 51.7347 16.9591 51.7347C17.2995 51.7347 17.5762 52.0114 17.5762 52.3518C17.5762 52.6921 17.2995 52.9689 16.9591 52.9689C16.6529 52.9689 16.3902 52.7411 16.348 52.4385C16.344 52.4101 16.342 52.3809 16.342 52.3518C16.342 51.8664 15.9485 51.4729 15.4631 51.4729C14.9777 51.4729 14.5842 51.8664 14.5842 52.3518C14.5842 53.6427 15.6554 54.7267 16.9591 54.7267C18.2687 54.7267 19.3341 53.6613 19.3341 52.3518C19.3341 51.785 19.1339 51.2645 18.8013 50.8557C19.1339 50.447 19.3341 49.9264 19.3341 49.3597C19.3341 48.0502 18.2687 46.9848 16.9591 46.9848ZM16.9591 33.5834C17.4445 33.5834 17.838 33.1898 17.838 32.7045V26.858C17.838 26.3726 17.4445 25.9791 16.9591 25.9791H15.7095C15.2241 25.9791 14.8305 26.3726 14.8305 26.858C14.8305 27.3434 15.2241 27.7369 15.7095 27.7369H16.0802V32.7045C16.0802 33.1898 16.4737 33.5834 16.9591 33.5834Z" fill="#00AB49"/>
<path d="M38.2892 9.38738C37.7732 8.87071 36.9353 8.87104 36.4187 9.38738L28.0001 17.8063L24.2583 14.0646C23.7417 13.548 22.9042 13.548 22.3875 14.0646C21.8708 14.5813 21.8708 15.4188 22.3875 15.9355L27.0644 20.6124C27.3226 20.8706 27.6611 21 27.9997 21C28.3383 21 28.6771 20.8709 28.9353 20.6124L38.2892 11.2582C38.8058 10.7419 38.8058 9.90401 38.2892 9.38738Z" fill="#00AB49"/>
</g>
<defs>
<clipPath id="clip0">
<rect width="60" height="60" fill="white"/>
</clipPath>
</defs>
</svg>
