<svg width="60" height="60" viewBox="0 0 60 60" fill="none" xmlns="http://www.w3.org/2000/svg">
<g clip-path="url(#clip0)">
<path d="M43.6654 5.81294C41.3129 5.89708 39.0398 4.95534 37.436 3.23212C33.5977 -0.87603 27.1559 -1.09478 23.0479 2.74352C22.8796 2.90075 22.7166 3.0637 22.5592 3.23212C20.9517 4.94962 18.6812 5.88997 16.3299 5.81192C10.7098 5.62164 5.99953 10.0234 5.80938 15.6435C5.80162 15.8735 5.80162 16.1035 5.80938 16.3335C5.88831 18.6846 4.94783 20.9551 3.22958 22.5618C-0.878574 26.4009 -1.09657 32.8434 2.7425 36.9515C2.89935 37.1193 3.06179 37.2818 3.22958 37.4386C4.94783 39.0453 5.88831 41.3158 5.80938 43.6669C5.66231 47.7886 8.02221 51.59 11.7815 53.2865L12.6224 51.4358C9.61488 50.0764 7.72668 47.0345 7.84311 43.7361C7.94264 40.7977 6.76739 37.9597 4.61964 35.9519C1.33197 32.8798 1.15733 27.7243 4.22929 24.4368C4.355 24.3023 4.48516 24.1721 4.61964 24.0464C6.76727 22.039 7.94251 19.2013 7.84311 16.2633C7.69058 11.7658 11.2129 7.99616 15.7104 7.84363C15.8944 7.8374 16.0787 7.8374 16.2628 7.84363C19.2009 7.94214 22.0384 6.76664 24.0459 4.61913C25.5807 2.96291 27.7397 2.02599 29.9976 2.03641C32.2564 2.0265 34.4157 2.96405 35.9504 4.62129C37.9568 6.77045 40.7951 7.94595 43.7335 7.84477C47.0326 7.72821 50.075 9.61679 51.4343 12.6251L53.286 11.7851C51.5885 8.02628 47.7871 5.66664 43.6654 5.81294Z" fill="#F9223F"/>
<path d="M57.7348 23.6012L56.1546 24.8824C58.8272 28.2092 58.4883 33.0328 55.3767 35.9531C53.2289 37.9609 52.0537 40.7988 52.1532 43.7372C52.3052 48.2347 48.7824 52.004 44.2848 52.1559C44.1011 52.1621 43.9172 52.1621 43.7335 52.1559C40.7953 52.0566 37.9576 53.2324 35.9504 55.3804C33.0294 58.4917 28.2055 58.8302 24.8787 56.1573L23.5985 57.7375C27.7561 61.0789 33.7853 60.6561 37.436 56.7674C39.041 55.0461 41.3134 54.105 43.6654 54.1876C49.2855 54.3779 53.9956 49.9761 54.1859 44.356C54.1937 44.1264 54.1937 43.8966 54.1859 43.667C54.107 41.3159 55.0475 39.0454 56.7657 37.4387C60.6533 33.7871 61.0755 27.7588 57.7348 23.6012Z" fill="#F9223F"/>
<path d="M59.3476 15.2373C58.5632 13.9823 57.1871 13.2204 55.7072 13.2218C54.228 13.2183 52.8523 13.9804 52.0709 15.2363L48.6247 20.7467L46.4781 18.6001C46.081 18.2031 45.4373 18.2031 45.0402 18.6001L18.6016 45.0387C18.2047 45.4358 18.2047 46.0794 18.6016 46.4765L20.7442 48.6272L15.2307 52.0734C13.2228 53.3291 12.613 55.9748 13.8687 57.9828C15.1244 59.9907 17.7702 60.6005 19.7781 59.3448C20.3293 59 20.7949 58.5346 21.1397 57.9834L24.59 52.473L26.7366 54.6196C27.1337 55.0166 27.7773 55.0166 28.1744 54.6196L54.613 28.181C55.01 27.7839 55.01 27.1402 54.613 26.7432L52.4705 24.5925L57.984 21.1463C59.9923 19.8912 60.6028 17.2456 59.3476 15.2373ZM19.4222 56.9046C18.7578 57.9576 17.3656 58.2727 16.3126 57.6083C15.2597 56.9439 14.9446 55.5517 15.609 54.4987C15.7882 54.2146 16.0286 53.9743 16.3126 53.7951L22.2237 50.1008L23.1135 50.9905L19.4222 56.9046ZM27.4555 52.4588L20.7584 45.7617L45.7592 20.761L52.4563 27.4581L27.4555 52.4588ZM57.6057 18.7212C57.4265 19.0052 57.1861 19.2457 56.902 19.4249L50.9909 23.1192L50.1012 22.2294L53.7924 16.3153C54.4568 15.2623 55.849 14.9472 56.902 15.6116C57.955 16.276 58.2701 17.6682 57.6057 18.7212Z" fill="#F9223F"/>
<path d="M20.5478 19.1122L19.1097 20.5502L28.7699 30.2104L30.2079 28.7723L20.5478 19.1122Z" fill="#00AB49"/>
<path d="M28.1744 16.5702L26.7363 18.0082L33.854 25.1259L35.292 23.6878L28.1744 16.5702Z" fill="#00AB49"/>
<path d="M18.0056 26.7389L16.5676 28.1769L23.6852 35.2946L25.1233 33.8565L18.0056 26.7389Z" fill="#00AB49"/>
<path d="M15.9712 34.8728L14.5332 36.3108L18.6007 40.3784L20.0388 38.9403L15.9712 34.8728Z" fill="#00AB49"/>
<path d="M36.3085 14.5334L34.8705 15.9715L38.938 20.039L40.3761 18.601L36.3085 14.5334Z" fill="#00AB49"/>
</g>
<defs>
<clipPath id="clip0">
<rect width="60" height="60" fill="white"/>
</clipPath>
</defs>
</svg>
