<svg width="16" height="16" viewBox="0 0 16 16" fill="none" xmlns="http://www.w3.org/2000/svg">
<path d="M15.4922 4.59763H13.721L12.8161 2.02664L12.5484 1.93436C12.4753 1.90909 10.7256 1.31638 8.05078 1.31638C5.38193 1.31638 3.52487 1.90552 3.44705 1.9306L3.16974 2.02014L2.27023 4.59763H0.492188V5.7695H1.83801L1.04196 7.02029C0.682251 7.58536 0.492188 8.23813 0.492188 8.90793V12.8007C0.492188 13.7701 1.28064 14.5586 2.25 14.5586C3.21936 14.5586 4.00781 13.7701 4.00781 12.8007V12.5078H11.9766V12.8007C11.9766 13.7701 12.765 14.5586 13.7344 14.5586C14.7037 14.5586 15.4922 13.7701 15.4922 12.8007V8.90317C15.4922 8.23712 15.304 7.58746 14.9482 7.02441L14.1547 5.7695H15.4922V4.59763ZM4.07996 2.96881C4.66333 2.81583 6.13568 2.48825 8.05078 2.48825C9.94336 2.48825 11.3472 2.81189 11.9039 2.96451L12.6642 5.12497H3.32748L4.07996 2.96881ZM2.83594 12.8007C2.83594 13.1238 2.57309 13.3867 2.25 13.3867C1.92691 13.3867 1.66406 13.1238 1.66406 12.8007V12.5078H2.83594V12.8007ZM9.60351 11.3359H6.38086V9.57809H9.60351V11.3359ZM13.7344 13.3867C13.4113 13.3867 13.1484 13.1238 13.1484 12.8007V12.5078H14.3203V12.8007C14.3203 13.1238 14.0575 13.3867 13.7344 13.3867ZM14.3203 11.3359H10.7754V8.40622H5.20898V11.3359H1.66406V8.90793C1.66406 8.46143 1.79077 8.02618 2.03064 7.64944L2.89142 6.29684H13.1017L13.9576 7.65073C14.1949 8.026 14.3203 8.45914 14.3203 8.90317V11.3359ZM4.30078 8.99216C4.30078 9.3158 4.03848 9.57809 3.71484 9.57809C3.60791 9.57809 3.23584 9.57809 3.12891 9.57809C2.80527 9.57809 2.54297 9.3158 2.54297 8.99216C2.54297 8.66852 2.80527 8.40622 3.12891 8.40622H3.71484C4.03848 8.40622 4.30078 8.66852 4.30078 8.99216ZM13.4414 8.99216C13.4414 9.3158 13.1791 9.57809 12.8555 9.57809C12.7485 9.57809 12.3765 9.57809 12.2695 9.57809C11.9459 9.57809 11.6836 9.3158 11.6836 8.99216C11.6836 8.66852 11.9459 8.40622 12.2695 8.40622H12.8555C13.1791 8.40622 13.4414 8.66852 13.4414 8.99216Z" fill="#00AB49"/>
</svg>
