<svg width="60" height="60" viewBox="0 0 60 60" fill="none" xmlns="http://www.w3.org/2000/svg">
<path d="M20.625 19.6875C21.1428 19.6875 21.5625 19.2678 21.5625 18.75C21.5625 18.2322 21.1428 17.8125 20.625 17.8125C20.1072 17.8125 19.6875 18.2322 19.6875 18.75C19.6875 19.2678 20.1072 19.6875 20.625 19.6875Z" fill="#F9223F"/>
<path d="M28.125 19.6875C28.6428 19.6875 29.0625 19.2678 29.0625 18.75C29.0625 18.2322 28.6428 17.8125 28.125 17.8125C27.6072 17.8125 27.1875 18.2322 27.1875 18.75C27.1875 19.2678 27.6072 19.6875 28.125 19.6875Z" fill="#F9223F"/>
<path d="M39.375 52.5C39.8928 52.5 40.3125 52.0803 40.3125 51.5625C40.3125 51.0447 39.8928 50.625 39.375 50.625C38.8572 50.625 38.4375 51.0447 38.4375 51.5625C38.4375 52.0803 38.8572 52.5 39.375 52.5Z" fill="#00BB54"/>
<path d="M22.0807 16.776L22.9193 15.099C22.2064 14.7447 21.4211 14.5603 20.625 14.5603C19.8289 14.5603 19.0436 14.7447 18.3307 15.099L19.1693 16.776C19.6216 16.5512 20.1199 16.4343 20.625 16.4343C21.1301 16.4343 21.6283 16.5512 22.0807 16.776Z" fill="#F9223F"/>
<path d="M29.5807 16.776L30.4193 15.099C29.7064 14.7447 28.9211 14.5603 28.125 14.5603C27.3289 14.5603 26.5436 14.7447 25.8307 15.099L26.6693 16.776C27.1216 16.5512 27.6199 16.4343 28.125 16.4343C28.6301 16.4343 29.1283 16.5512 29.5807 16.776Z" fill="#F9223F"/>
<path d="M24.375 26.25C25.1207 26.2492 25.8355 25.9526 26.3628 25.4253C26.8901 24.898 27.1867 24.1832 27.1875 23.4375H25.3125C25.3125 23.6861 25.2137 23.9246 25.0379 24.1004C24.8621 24.2762 24.6236 24.375 24.375 24.375C24.1264 24.375 23.8879 24.2762 23.7121 24.1004C23.5363 23.9246 23.4375 23.6861 23.4375 23.4375H21.5625C21.5633 24.1832 21.8599 24.898 22.3872 25.4253C22.9145 25.9526 23.6293 26.2492 24.375 26.25Z" fill="#F9223F"/>
<path d="M25.3125 18.75H23.4375V21.5625H25.3125V18.75Z" fill="#F9223F"/>
<path d="M57.1875 39.375H44.6829C43.2751 37.5781 41.312 36.298 39.1 35.7346L33.6904 34.3611C33.6593 34.2767 33.6162 34.1972 33.5625 34.125L30.75 30.375C30.6627 30.2586 30.5494 30.1642 30.4192 30.0992C30.289 30.0342 30.1455 30.0005 30 30.0006V28.1593L32.1701 25.6275C33.1637 24.467 33.7216 22.9963 33.7475 21.4687C34.8061 21.2517 35.7574 20.6763 36.441 19.8394C37.1246 19.0026 37.4986 17.9556 37.5 16.875C37.4992 16.1293 37.2026 15.4144 36.6753 14.8872C36.1481 14.3599 35.4332 14.0633 34.6875 14.0625H33.75V12.3768L34.2701 12.03C34.4412 11.9159 34.57 11.7487 34.6367 11.5542C34.7034 11.3596 34.7043 11.1486 34.6392 10.9535L34.6383 10.9505V10.9499L33.9023 8.74218C33.2357 6.74269 31.9568 5.00362 30.2469 3.77129C28.537 2.53896 26.4827 1.87584 24.375 1.87584C22.2673 1.87584 20.213 2.53896 18.5031 3.77129C16.7932 5.00362 15.5143 6.74269 14.8477 8.74218L14.1116 10.9503V10.9509L14.1107 10.954C14.0456 11.1491 14.0465 11.3601 14.1132 11.5546C14.1799 11.7492 14.3087 11.9164 14.4798 12.0305L15 12.3768V14.0625H14.0625C13.3168 14.0633 12.602 14.3599 12.0747 14.8872C11.5474 15.4144 11.2508 16.1293 11.25 16.875C11.2514 17.9556 11.6254 19.0026 12.309 19.8394C12.9926 20.6763 13.9439 21.2517 15.0025 21.4687C15.0284 22.9963 15.5862 24.467 16.5798 25.6276L18.75 28.1593V30.0007C18.6045 30.0005 18.461 30.0343 18.3308 30.0992C18.2006 30.1642 18.0873 30.2586 18 30.375L15.1875 34.125C15.1337 34.1971 15.0907 34.2767 15.0596 34.3611L9.65004 35.7346C7.42641 36.2976 5.45421 37.5864 4.04586 39.3969C2.63751 41.2075 1.87355 43.4362 1.875 45.73V57.1875C1.875 57.4361 1.97377 57.6746 2.14959 57.8504C2.3254 58.0262 2.56386 58.125 2.8125 58.125H57.1875C57.4361 58.125 57.6746 58.0262 57.8504 57.8504C58.0262 57.6746 58.125 57.4361 58.125 57.1875V53.4375H58.1237C58.1242 53.3368 58.1084 53.2367 58.0768 53.141L56.3246 47.8844L58.026 44.4818C58.0906 44.3515 58.1239 44.2079 58.1232 44.0625H58.125V40.3125C58.125 40.0639 58.0262 39.8254 57.8504 39.6496C57.6746 39.4738 57.4361 39.375 57.1875 39.375ZM56.25 43.125H23.4375V41.25H56.25V43.125ZM48.75 51.5625C48.5014 51.5625 48.2629 51.6613 48.0871 51.8371C47.9113 52.0129 47.8125 52.2514 47.8125 52.5H44.0625C44.0625 52.2514 43.9637 52.0129 43.7879 51.8371C43.6121 51.6613 43.3736 51.5625 43.125 51.5625C42.8764 51.5625 42.6379 51.6613 42.4621 51.8371C42.2863 52.0129 42.1875 52.2514 42.1875 52.5H32.8125C32.8125 52.2514 32.7137 52.0129 32.5379 51.8371C32.3621 51.6613 32.1236 51.5625 31.875 51.5625C31.6264 51.5625 31.3879 51.6613 31.2121 51.8371C31.0363 52.0129 30.9375 52.2514 30.9375 52.5H27.1875C27.1875 52.2805 27.7687 51.4877 30.3516 50.7497C31.8832 50.3328 33.4479 50.0491 35.0284 49.9016C34.8739 50.0288 34.7642 50.2022 34.7152 50.3962C34.6663 50.5903 34.6808 50.795 34.7566 50.9802C34.8324 51.1655 34.9654 51.3216 35.1363 51.4258C35.3072 51.53 35.507 51.5767 35.7064 51.5592C35.9058 51.5417 36.0943 51.4608 36.2444 51.3285C36.3945 51.1961 36.4983 51.0191 36.5406 50.8235C36.583 50.6279 36.5615 50.4238 36.4796 50.2413C36.3976 50.0587 36.2593 49.9071 36.085 49.8088C37.1446 49.7293 38.2475 49.6875 39.375 49.6875C41.3151 49.681 43.2531 49.8126 45.1745 50.0815C45.0823 50.2105 45.0243 50.3608 45.006 50.5183C44.9877 50.6758 45.0097 50.8354 45.0698 50.9821C45.1299 51.1288 45.2263 51.2579 45.3499 51.3572C45.4735 51.4566 45.6202 51.5229 45.7764 51.5501C45.9326 51.5773 46.0932 51.5645 46.2431 51.5128C46.393 51.461 46.5273 51.3721 46.6335 51.2544C46.7397 51.1366 46.8143 50.9939 46.8503 50.8394C46.8863 50.685 46.8825 50.524 46.8394 50.3714C47.3885 50.4847 47.9108 50.6105 48.398 50.7497C50.981 51.488 51.562 52.2805 51.562 52.5H49.6875C49.6875 52.2514 49.5887 52.0129 49.4129 51.8371C49.2371 51.6613 48.9986 51.5625 48.75 51.5625ZM54.7331 46.875H24.9544L24.0169 45H55.6706L54.7331 46.875ZM24.9544 48.75H30.5839C30.3286 48.813 30.0779 48.8781 29.8366 48.947C26.8346 49.8047 25.3125 51 25.3125 52.5H23.0794L24.9544 48.75ZM48.9134 48.947C48.6721 48.8781 48.4212 48.813 48.1661 48.75H54.6368L55.8867 52.5H53.4375C53.4375 51 51.9154 49.8047 48.9134 48.947ZM31.4388 34.418L28.2703 36.3196L25.9576 34.0068L29.7193 32.126L31.4388 34.418ZM24.375 32.7019L20.6175 30.823C20.6221 30.73 20.625 30.6367 20.625 30.5435V29.8557C21.7481 30.5625 23.048 30.9375 24.375 30.9375C25.702 30.9375 27.0019 30.5625 28.125 29.8557V30.5435C28.125 30.6373 28.1279 30.73 28.1325 30.823L24.375 32.7019ZM34.6875 15.9375C34.9361 15.9378 35.1744 16.0366 35.3501 16.2124C35.5259 16.3881 35.6247 16.6264 35.625 16.875C35.6243 17.4564 35.4436 18.0233 35.1079 18.498C34.7723 18.9726 34.2979 19.3318 33.75 19.5262V15.9375H34.6875ZM16.8642 11.366L17.6902 10.953C19.7657 9.91527 22.0544 9.37499 24.375 9.37499C26.6956 9.37499 28.9843 9.91527 31.0598 10.953L31.8858 11.366L30.7625 12.115L30.1434 11.9603C26.3561 11.0133 22.394 11.0133 18.6067 11.9603L17.9875 12.1151L16.8642 11.366ZM24.375 3.75C26.0896 3.7483 27.7612 4.287 29.1521 5.28955C30.5431 6.29211 31.5827 7.70752 32.1233 9.33468L32.1449 9.39925L31.8988 9.27597C29.5628 8.108 26.987 7.49994 24.3754 7.49994C21.7637 7.49994 19.1879 8.108 16.8519 9.27597L16.6058 9.39925L16.6274 9.33457C17.168 7.70759 18.2076 6.29233 19.5984 5.28982C20.9892 4.28731 22.6605 3.74853 24.375 3.75ZM13.125 16.875C13.1253 16.6264 13.2241 16.3881 13.3999 16.2124C13.5757 16.0366 13.8139 15.9378 14.0625 15.9375H15V19.5262C14.4521 19.3318 13.9778 18.9726 13.6421 18.498C13.3064 18.0233 13.1258 17.4564 13.125 16.875ZM16.875 21.3566V13.6267L17.2924 13.905C17.4011 13.9774 17.5237 14.0264 17.6525 14.0487C17.7812 14.071 17.9131 14.0662 18.0398 14.0346L19.0614 13.7791C22.5506 12.9109 26.1994 12.9109 29.6886 13.7791L30.7102 14.0345C30.8369 14.0661 30.9688 14.0709 31.0975 14.0486C31.2263 14.0263 31.3489 13.9773 31.4576 13.9049L31.875 13.6267V21.3566C31.8748 22.4755 31.4745 23.5575 30.7465 24.4072L28.3061 27.2549C27.82 27.8219 27.217 28.2771 26.5384 28.5892C25.8599 28.9013 25.1219 29.0629 24.375 29.0629C23.6281 29.0629 22.8901 28.9013 22.2116 28.5892C21.533 28.2771 20.93 27.8219 20.4439 27.2549L18.0034 24.4072C17.2754 23.5575 16.8752 22.4755 16.875 21.3566ZM19.0305 32.1261L22.7923 34.0069L20.4797 36.3196L17.3112 34.418L19.0305 32.1261ZM10.1114 37.5519L16.2793 35.9862L20.1427 38.304C20.3219 38.4116 20.532 38.4563 20.7395 38.4308C20.947 38.4053 21.14 38.3112 21.2879 38.1634L23.4375 36.0134V38.4375H25.3125V36.0134L27.4621 38.1629C27.61 38.3107 27.803 38.4048 28.0105 38.4303C28.218 38.4558 28.4281 38.4112 28.6073 38.3036L32.4707 35.9857L38.6386 37.5514C39.9226 37.8787 41.1116 38.5033 42.1096 39.375H22.5C22.2514 39.375 22.0129 39.4738 21.8371 39.6496C21.6613 39.8254 21.5625 40.0639 21.5625 40.3125V44.0625H21.5643C21.5636 44.2079 21.5969 44.3515 21.6615 44.4818L23.3269 47.8125L20.724 53.0182C20.6594 53.1485 20.6261 53.2921 20.6268 53.4375H20.625V56.25H13.125V45H11.25V51.5625H3.75V45.73C3.74881 43.8532 4.37387 42.0297 5.52615 40.5483C6.67844 39.067 8.29206 38.0124 10.1114 37.5518V37.5519ZM3.75 53.4375H11.25V56.25H3.75V53.4375ZM22.5 56.25V54.375H56.25V56.25H22.5Z" fill="#F9223F"/>
<path fill-rule="evenodd" clip-rule="evenodd" d="M57.1875 39.375H44.6829H42.1096H22.5C22.2514 39.375 22.0129 39.4738 21.8371 39.6496C21.6613 39.8254 21.5625 40.0639 21.5625 40.3125V44.0625H21.5643C21.5636 44.2079 21.5969 44.3515 21.6615 44.4818L23.3269 47.8125L20.724 53.0182C20.6594 53.1485 20.6261 53.2921 20.6268 53.4375L20.625 53.25V53.4375V58.0636L57.1875 58.125C57.4361 58.125 57.6746 58.0262 57.8504 57.8504C58.0262 57.6746 58.125 57.4361 58.125 57.1875V53.4375H58.1237C58.1242 53.3368 58.1084 53.2367 58.0768 53.141L56.3246 47.8845L58.026 44.4818C58.0906 44.3515 58.1239 44.2079 58.1232 44.0625H58.125V40.3125C58.125 40.0639 58.0262 39.8254 57.8504 39.6496C57.6746 39.4738 57.4361 39.375 57.1875 39.375ZM22.5 54.375V56.25H56.25V54.375H22.5ZM48.75 51.5625C48.5014 51.5625 48.2629 51.6613 48.0871 51.8371C47.9113 52.0129 47.8125 52.2514 47.8125 52.5H44.0625C44.0625 52.2514 43.9637 52.0129 43.7879 51.8371C43.6121 51.6613 43.3736 51.5625 43.125 51.5625C42.8764 51.5625 42.6379 51.6613 42.4621 51.8371C42.2863 52.0129 42.1875 52.2514 42.1875 52.5H32.8125C32.8125 52.2514 32.7137 52.0129 32.5379 51.8371C32.3621 51.6613 32.1236 51.5625 31.875 51.5625C31.6264 51.5625 31.3879 51.6613 31.2121 51.8371C31.0363 52.0129 30.9375 52.2514 30.9375 52.5H27.1875C27.1875 52.2805 27.7688 51.4877 30.3516 50.7497C31.8832 50.3328 33.4479 50.0491 35.0284 49.9016C34.8739 50.0288 34.7642 50.2022 34.7152 50.3962C34.6663 50.5903 34.6808 50.795 34.7566 50.9802C34.8324 51.1655 34.9654 51.3216 35.1363 51.4258C35.3072 51.53 35.507 51.5767 35.7064 51.5592C35.9057 51.5417 36.0943 51.4608 36.2444 51.3285C36.3945 51.1961 36.4983 51.0191 36.5406 50.8235C36.583 50.6279 36.5615 50.4238 36.4796 50.2413C36.3976 50.0587 36.2593 49.9071 36.085 49.8088C37.1446 49.7293 38.2475 49.6875 39.375 49.6875C41.3151 49.681 43.2531 49.8126 45.1745 50.0815C45.0823 50.2105 45.0243 50.3608 45.006 50.5183C44.9877 50.6758 45.0097 50.8354 45.0698 50.9821C45.1299 51.1288 45.2263 51.2579 45.3499 51.3572C45.4735 51.4566 45.6202 51.5229 45.7764 51.5501C45.9326 51.5773 46.0932 51.5645 46.2431 51.5128C46.393 51.461 46.5273 51.3721 46.6335 51.2544C46.7397 51.1366 46.8143 50.9939 46.8503 50.8394C46.8863 50.685 46.8825 50.524 46.8394 50.3714C47.3885 50.4847 47.9108 50.6105 48.398 50.7497C50.981 51.488 51.562 52.2805 51.562 52.5H49.6875C49.6875 52.2514 49.5887 52.0129 49.4129 51.8371C49.2371 51.6613 48.9986 51.5625 48.75 51.5625ZM30.5839 48.75H24.9544L23.0794 52.5H25.3125C25.3125 51 26.8346 49.8047 29.8366 48.947C30.0779 48.8781 30.3286 48.813 30.5839 48.75ZM54.7331 46.875H24.9544L24.0169 45H55.6706L54.7331 46.875ZM23.4375 43.125H56.25V41.25H23.4375V43.125Z" fill="#00BB54"/>
<path d="M55.6747 23.3228C55.2415 22.8923 54.5381 22.8925 54.1044 23.3228L47.037 30.3386L43.8959 27.2205C43.4621 26.79 42.759 26.79 42.3253 27.2205C41.8916 27.6511 41.8916 28.349 42.3253 28.7796L46.2516 32.677C46.4683 32.8922 46.7525 33 47.0367 33C47.3209 33 47.6054 32.8924 47.8221 32.677L55.6747 24.8818C56.1084 24.4516 56.1084 23.7533 55.6747 23.3228Z" fill="#00AB49"/>
</svg>
