<svg width="60" height="60" viewBox="0 0 60 60" fill="none" xmlns="http://www.w3.org/2000/svg">
<g clip-path="url(#clip0)">
<path d="M53.6874 24.5527L48.3689 25.9379C48.3688 25.9379 48.3685 25.938 48.3684 25.9381C48.3683 25.9381 48.3681 25.9382 48.3679 25.9382L29.0681 30.9651L35.5452 6.38475C35.6688 5.91557 35.3887 5.43491 34.9195 5.31106C30.322 4.09793 25.4453 4.09394 20.8166 5.29957C13.6251 7.17265 7.59399 11.7311 3.83436 18.1353C0.0746231 24.5397 -0.963331 32.0233 0.911618 39.2073C2.78657 46.3912 7.34991 52.4156 13.761 56.1708C18.0862 58.7043 22.9022 60.0001 27.7872 60C30.1426 59.9999 32.5148 59.6985 34.8543 59.0892C42.0459 57.2161 48.077 52.6576 51.8366 46.2534C55.5964 39.849 56.6343 32.3655 54.7594 25.1813C54.6368 24.7118 54.1572 24.4306 53.6874 24.5527ZM44.2622 28.8239C44.2196 29.0878 44.1297 29.3445 43.9902 29.5822C43.6948 30.0854 43.2207 30.4438 42.6553 30.5909C41.7916 30.816 40.9123 30.4896 40.3898 29.8326L44.2622 28.8239ZM29.2743 23.2849C28.4926 23.1092 27.8438 22.5091 27.6338 21.7048C27.4865 21.1407 27.5681 20.553 27.8634 20.0499C28.1588 19.5467 28.6329 19.1883 29.1983 19.0411C29.5954 18.9379 30.0033 18.9496 30.3858 19.0665L29.2743 23.2849ZM50.3207 45.3634C46.7987 51.3629 41.1487 55.6333 34.4112 57.3881C27.6737 59.1431 20.6555 58.172 14.6493 54.654C8.64354 51.1363 4.36869 45.4928 2.61232 38.7633C0.856076 32.034 1.82841 25.0242 5.35016 19.025C8.87215 13.0255 14.5222 8.75512 21.2596 7.00028C25.2838 5.95225 29.5622 5.87796 33.6178 6.80085L32.6694 10.3999C31.0896 10.0512 29.4666 9.87416 27.8354 9.87416C20.9872 9.87416 14.6137 12.9531 10.3492 18.3214C9.65466 19.1957 11 20.328 11.7254 19.4147C15.6545 14.4686 21.5263 11.6318 27.8353 11.6318C29.3153 11.6318 30.7874 11.7898 32.2211 12.1009L30.8344 17.3634C30.1627 17.1703 29.449 17.1594 28.755 17.3402C27.7355 17.6057 26.8805 18.2521 26.3475 19.1601C25.8142 20.0684 25.667 21.1298 25.933 22.1487C26.3057 23.577 27.4445 24.6492 28.8261 24.9848L26.9855 31.9702C26.9317 32.7381 27.2889 33.0962 28.0568 33.0446L38.6044 30.2974C39.2822 31.5991 40.6411 32.4198 42.1039 32.4196C42.4322 32.4196 42.7662 32.3781 43.0983 32.2916C44.1178 32.0261 44.9729 31.3799 45.5059 30.4718C45.8873 29.822 46.0701 29.0939 46.0464 28.3589L47.939 27.866C48.242 29.2816 48.3976 30.7332 48.3976 32.194C48.3976 43.5322 39.1733 52.7564 27.8353 52.7564C16.4972 52.7564 7.27316 43.5324 7.27316 32.1943C7.27316 28.9433 8.00961 25.8339 9.4619 22.9524C9.97326 21.9378 8.40368 21.1466 7.89232 22.1613C6.31523 25.2904 5.5155 28.6659 5.5155 32.1943C5.5155 44.5016 15.5282 54.5142 27.8355 54.5142C40.1428 54.5142 50.1555 44.5015 50.1555 32.1943C50.1555 30.5838 49.9816 28.983 49.6419 27.4227L53.2664 26.4786C54.7281 32.9443 53.6938 39.6177 50.3207 45.3634Z" fill="#F9223F"/>
<path d="M14.9599 28.5721C15.2882 28.5721 15.622 28.5306 15.9542 28.4441C16.9738 28.1786 17.8288 27.5324 18.3619 26.6244C18.8952 25.716 19.0423 24.6546 18.7763 23.6358C18.2276 21.5332 16.0691 20.2686 13.9645 20.8166C12.945 21.0821 12.09 21.7285 11.5569 22.6365C11.0238 23.5447 10.8765 24.6061 11.1425 25.6251C11.6045 27.3957 13.2082 28.5722 14.9599 28.5721ZM13.0726 23.5262C13.368 23.0229 13.8421 22.6647 14.4074 22.5174C14.5918 22.4694 14.7768 22.4465 14.9591 22.4465C15.9303 22.4465 16.8195 23.0984 17.0756 24.0796C17.2228 24.6437 17.1414 25.2315 16.8461 25.7345C16.5507 26.2378 16.0766 26.596 15.5112 26.7433C14.3443 27.0475 13.1473 26.3466 12.843 25.1812C12.6958 24.617 12.7773 24.0292 13.0726 23.5262Z" fill="#F9223F"/>
<path d="M15.8978 38.6392C14.8782 38.9048 14.0232 39.551 13.4901 40.4591C12.957 41.3674 12.8097 42.4287 13.0757 43.4476C13.5377 45.2184 15.1414 46.3948 16.8933 46.3946C17.2216 46.3946 17.5555 46.3532 17.8877 46.2668C18.9071 46.0012 19.7621 45.3549 20.2952 44.4469C20.8283 43.5386 20.9756 42.4773 20.7096 41.4583C20.1609 39.3557 18.0023 38.091 15.8978 38.6392ZM18.7794 43.557C18.484 44.0603 18.0099 44.4186 17.4445 44.5658C16.2774 44.8697 15.0804 44.1691 14.7763 43.0036C14.6291 42.4395 14.7105 41.8518 15.0058 41.3487C15.3012 40.8454 15.7753 40.4871 16.3407 40.3399C16.5251 40.2919 16.7101 40.2691 16.8925 40.2691C17.8637 40.2691 18.7528 40.9209 19.0089 41.9021C19.1562 42.4664 19.0747 43.054 18.7794 43.557Z" fill="#F9223F"/>
<path d="M35.5544 40.882C34.5348 41.1475 33.6798 41.7937 33.1468 42.7018C32.6135 43.6101 32.4663 44.6715 32.7323 45.6903C33.1945 47.461 34.798 48.6373 36.5499 48.6373C36.8783 48.6373 37.212 48.596 37.5442 48.5095C38.5637 48.244 39.4188 47.5976 39.9517 46.6896C40.485 45.7814 40.6322 44.72 40.3663 43.701C39.8174 41.5985 37.6588 40.3341 35.5544 40.882ZM38.6656 44.1449C38.8127 44.709 38.7313 45.2967 38.436 45.7998C38.1406 46.303 37.6665 46.6614 37.1011 46.8085C35.9341 47.1126 34.7372 46.4118 34.4329 45.2463C34.2856 44.6823 34.3672 44.0945 34.6625 43.5915C34.9579 43.0882 35.432 42.73 35.9973 42.5827C36.1818 42.5346 36.3668 42.5118 36.549 42.5118C37.5203 42.5119 38.4094 43.1638 38.6656 44.1449Z" fill="#F9223F"/>
<path d="M21.6958 20.3409C22.3063 21.3818 23.7629 20.3911 23.2118 19.4516L20.9908 15.6648C20.416 14.6846 18.8999 15.5739 19.4748 16.5541L21.6958 20.3409Z" fill="#F9223F"/>
<path d="M20.6773 31.5521C21.0793 31.9225 21.4927 31.9501 21.9173 31.6348L25.2224 28.7427C26.0776 27.9945 24.92 26.6715 24.065 27.42L20.7599 30.3121C20.3946 30.6317 20.3576 31.1869 20.6773 31.5521Z" fill="#F9223F"/>
<path d="M26.6519 44.754C26.3456 43.6598 24.653 44.1334 24.9593 45.2277L26.1423 49.4545C26.4432 50.5298 28.142 50.078 27.8349 48.9808L26.6519 44.754Z" fill="#F9223F"/>
<path d="M32.7529 36.7212C32.7749 36.7212 32.7973 36.7203 32.8196 36.7187L37.2011 36.3891C38.334 36.3038 38.2029 34.5514 37.0693 34.6364L32.6878 34.966C31.5905 35.0486 31.663 36.7212 32.7529 36.7212Z" fill="#F9223F"/>
<path d="M24.0083 36.885C23.7467 37.2939 23.8661 37.8373 24.275 38.0988L27.9751 40.4655C28.8954 41.0542 29.9025 39.6119 28.9222 38.9849L25.2221 36.6181C24.8132 36.3566 24.2697 36.4761 24.0083 36.885Z" fill="#F9223F"/>
<path d="M11.6458 35.2945C11.6679 35.2945 11.6902 35.2937 11.7126 35.2921L16.0941 34.9624C17.2271 34.8771 17.0956 33.1253 15.9623 33.2097L11.5808 33.5393C10.4834 33.6218 10.556 35.2945 11.6458 35.2945Z" fill="#F9223F"/>
<path d="M41.709 39.7709C42.149 40.0286 42.5551 39.9463 42.9272 39.5242L45.3535 35.8649C45.9813 34.9179 44.5166 33.9468 43.8885 34.8937L41.4623 38.5529C41.194 38.9572 41.3045 39.5027 41.709 39.7709Z" fill="#F9223F"/>
<path d="M43.9778 16.6481C44.5167 16.6481 44.9854 16.023 44.8134 15.4963L43.4506 11.3226C43.098 10.2424 41.4272 10.788 41.7798 11.8681L43.1426 16.0419C43.2636 16.4126 43.6079 16.6481 43.9778 16.6481Z" fill="#00AB49"/>
<path d="M59.9702 19.6092C59.7422 18.7507 59.4672 17.8915 59.1526 17.0555C58.7526 15.9919 57.1075 16.6108 57.5075 17.6743C57.698 18.181 57.8732 18.6968 58.0308 19.2154L54.3813 20.1863C53.4487 17.2131 51.8908 14.4309 49.8402 12.0963C47.4886 9.41905 44.6042 7.39423 41.2669 6.07822C40.8618 5.9185 40.4495 5.77098 40.0351 5.63458L41.0805 1.97936C46.9522 3.87833 52.1395 7.98996 55.4082 13.3671C55.9983 14.3381 57.5004 13.4251 56.91 12.4542C53.2588 6.44744 47.3582 1.92042 40.7213 0.0336409C40.2551 -0.0988863 39.7694 0.171207 39.636 0.637337L32.2335 26.5218C32.0485 27.1688 32.7212 27.7678 33.3044 27.6128L59.3466 20.6841C59.8158 20.5594 60.0948 20.0783 59.9702 19.6092ZM38.1574 14.9156C38.8977 16.2499 37.9706 18.0039 36.4553 18.1528C36.8282 16.8488 37.2011 15.5448 37.5741 14.2408C37.7685 14.4657 37.9629 14.6906 38.1574 14.9156ZM35.9523 19.9114C40.0855 20.2194 41.774 14.4082 38.0768 12.483L39.5517 7.3258C39.9117 7.44555 40.2701 7.57433 40.6224 7.7133C43.6973 8.92597 46.3544 10.7908 48.5198 13.2562C50.3925 15.3884 51.8193 17.926 52.6813 20.6386L50.9005 21.1124C50.763 20.4636 50.4629 19.8566 50.0152 19.3428C47.2938 16.2195 42.0114 19.1294 43.292 23.1366L34.3496 25.5158L35.9523 19.9114ZM44.9942 22.684C43.9474 19.8233 48.6882 18.5785 49.1957 21.5661C47.7952 21.9387 46.3947 22.3113 44.9942 22.684Z" fill="#00AB49"/>
</g>
<defs>
<clipPath id="clip0">
<rect width="60" height="60" fill="white"/>
</clipPath>
</defs>
</svg>
