<svg width="16" height="15" viewBox="0 0 16 15" fill="none" xmlns="http://www.w3.org/2000/svg">
<path d="M13.9999 1.33337L12.6666 2.66671M12.6666 2.66671L14.6666 4.66671L12.3332 7.00004L10.3332 5.00004M12.6666 2.66671L10.3332 5.00004M7.59324 7.74004C7.93747 8.07969 8.21111 8.48407 8.39841 8.9299C8.58571 9.37574 8.68297 9.85422 8.68459 10.3378C8.68621 10.8214 8.59216 11.3005 8.40785 11.7476C8.22354 12.1947 7.95262 12.6009 7.61067 12.9428C7.26873 13.2847 6.86252 13.5557 6.41544 13.74C5.96836 13.9243 5.48924 14.0183 5.00566 14.0167C4.52209 14.0151 4.0436 13.9178 3.59777 13.7305C3.15193 13.5432 2.74755 13.2696 2.40791 12.9254C1.74 12.2338 1.37042 11.3076 1.37877 10.3462C1.38712 9.38485 1.77274 8.4652 2.45257 7.78537C3.1324 7.10554 4.05205 6.71992 5.01344 6.71157C5.97483 6.70322 6.9017 7.07213 7.59324 7.74004ZM7.59324 7.74004L10.3332 5.00004" stroke="#00AB49" stroke-width="1.5" stroke-linecap="round" stroke-linejoin="round"/>
</svg>
