<svg width="16" height="16" viewBox="0 0 16 16" fill="none" xmlns="http://www.w3.org/2000/svg">
<path d="M14.6665 11.28V13.28C14.6673 13.4657 14.6292 13.6494 14.5549 13.8195C14.4805 13.9897 14.3714 14.1424 14.2346 14.2679C14.0978 14.3934 13.9362 14.489 13.7604 14.5485C13.5845 14.6079 13.3981 14.63 13.2132 14.6133C11.1617 14.3904 9.19119 13.6894 7.45986 12.5667C5.84908 11.5431 4.48342 10.1774 3.45986 8.56665C2.33318 6.82745 1.63202 4.84731 1.41319 2.78665C1.39653 2.60229 1.41844 2.41649 1.47753 2.24107C1.53661 2.06564 1.63157 1.90444 1.75637 1.76773C1.88117 1.63102 2.03306 1.52179 2.20239 1.447C2.37171 1.37221 2.55475 1.33349 2.73986 1.33332H4.73986C5.0634 1.33013 5.37705 1.4447 5.62237 1.65567C5.86768 1.86664 6.02791 2.15961 6.07319 2.47998C6.15761 3.12003 6.31416 3.74847 6.53986 4.35332C6.62956 4.59193 6.64897 4.85126 6.5958 5.10057C6.54263 5.34988 6.4191 5.57872 6.23986 5.75998L5.39319 6.60665C6.34223 8.27568 7.72416 9.65761 9.39319 10.6067L10.2399 9.75998C10.4211 9.58074 10.65 9.45722 10.8993 9.40405C11.1486 9.35088 11.4079 9.37029 11.6465 9.45998C12.2514 9.68568 12.8798 9.84224 13.5199 9.92665C13.8437 9.97234 14.1395 10.1355 14.3509 10.385C14.5623 10.6345 14.6746 10.953 14.6665 11.28Z" stroke="#00AB49" stroke-width="1.5" stroke-linecap="round" stroke-linejoin="round"/>
</svg>
