<svg width="24" height="24" viewBox="0 0 24 24" fill="none" xmlns="http://www.w3.org/2000/svg">
<path fill-rule="evenodd" clip-rule="evenodd" d="M15.4092 8.5476C15.4098 8.57144 15.4285 8.59013 15.4523 8.59071C19.0771 8.67661 22 11.6471 22 15.2921C22 18.9491 19.0658 21.9331 15.4244 22H2.12148C2.05438 22 2 21.9457 2 21.8786V8.57549C2.06703 4.93426 5.05131 2 8.70833 2C12.3532 2 15.3232 4.92314 15.4092 8.5476ZM3.11063 8.52539C3.15867 5.53032 5.60795 3.10838 8.61405 3.10838C11.6202 3.10838 14.07 5.53032 14.1181 8.52539C14.1185 8.55267 14.0959 8.57576 14.0686 8.57576H3.16008C3.13281 8.57576 3.1102 8.55272 3.11063 8.52539ZM12.846 16.4798C13.6405 13.2304 10.7705 10.3595 7.521 11.1534C5.9877 11.5279 4.76034 12.7544 4.38385 14.2871C3.58503 17.5396 6.45962 20.4149 9.71168 19.6166C11.2446 19.2403 12.4711 18.013 12.846 16.4798ZM14.0731 20.8916H3.15562C3.12936 20.8916 3.10809 20.8703 3.10809 20.8441V9.9274C3.10809 9.92131 3.10924 9.91549 3.11132 9.91014C3.11253 9.90704 3.11404 9.9041 3.11584 9.90135C3.11737 9.89901 3.11911 9.89681 3.12102 9.89479C3.1263 9.88919 3.13291 9.88487 3.14038 9.88234C3.14516 9.88073 3.15029 9.87986 3.15562 9.87986H14.0731C14.0993 9.87986 14.1206 9.90113 14.1206 9.9274V20.8441C14.1206 20.8472 14.1203 20.8501 14.1197 20.853C14.1188 20.8581 14.117 20.8629 14.1146 20.8672C14.1118 20.8722 14.1081 20.8767 14.1037 20.8804C14.0985 20.8848 14.0923 20.8881 14.0855 20.89C14.0815 20.8911 14.0774 20.8916 14.0731 20.8916ZM7.73792 18.3249C10.0977 18.9847 12.2137 16.8692 11.5538 14.5098C11.2769 13.5198 10.4835 12.7256 9.49388 12.4474C7.13259 11.7837 5.01295 13.9027 5.67563 16.2644C5.95338 17.2543 6.74771 18.0481 7.73792 18.3249ZM15.4241 20.8397V9.93179C15.4241 9.90451 15.4472 9.88192 15.4745 9.88234C18.4697 9.93006 20.8919 12.3795 20.8919 15.3857C20.8919 18.392 18.4697 20.8414 15.4745 20.8891C15.4472 20.8896 15.4241 20.8669 15.4241 20.8397Z" fill="#D6D6D6"/>
</svg>
